<?xml version="1.0" standalone="no"?><!DOCTYPE svg PUBLIC "-//W3C//DTD SVG 1.1//EN" "http://www.w3.org/Graphics/SVG/1.1/DTD/svg11.dtd"><svg t="1599896234744" class="icon" viewBox="0 0 1024 1024" version="1.1" xmlns="http://www.w3.org/2000/svg" p-id="601" xmlns:xlink="http://www.w3.org/1999/xlink" width="200" height="200"><defs><style type="text/css"></style></defs><path d="M293.103 494.31c-0.45 0.871-1.181 1.603-1.575 2.503-7.734 16.08699999-5.203 35.775 8.494 48.712L610.494 839.178c16.931 16.003 43.622 15.244 59.653-1.66 16.00299999-16.93 15.272-43.621-1.66-59.652L389.91 514.334l277.482-267.44c16.762-16.172 17.268-42.863 1.096-59.65300001-8.268-8.607-19.32099999-12.91-30.375-12.90999999a42.106 42.106 0 0 0-29.27799999 11.813l-307.65900001 296.522c-0.59 0.59-0.816 1.406-1.406 2.025-0.45 0.421-0.928 0.73-1.378 1.18-2.39099999 2.504-3.657 5.57-5.288 8.438z" p-id="602"></path></svg>