<?xml version="1.0" standalone="no"?><!DOCTYPE svg PUBLIC "-//W3C//DTD SVG 1.1//EN" "http://www.w3.org/Graphics/SVG/1.1/DTD/svg11.dtd"><svg t="1599296336568" class="icon" viewBox="0 0 1024 1024" version="1.1" xmlns="http://www.w3.org/2000/svg" p-id="7060" xmlns:xlink="http://www.w3.org/1999/xlink" width="200" height="200"><defs><style type="text/css"></style></defs><path d="M109.30935 842.775904c47.58262 0 86.288076-38.70648 86.288076-86.288076V267.513195c0-47.58262-38.705456-86.289099-86.288076-86.289099-47.583643 0-86.289099 38.70648-86.2891 86.289099V756.487828c0 47.581597 38.705456 86.288076 86.2891 86.288076zM80.543247 267.513195c0-15.870424 12.893632-28.76201 28.765079-28.76201 15.869401 0 28.760987 12.891586 28.760987 28.76201V756.487828c0 15.869401-12.892609 28.76201-28.760987 28.76201-15.872471 0-28.76508-12.893632-28.765079-28.76201V267.513195zM368.177671 842.775904c47.58262 0 86.288076-38.70648 86.288076-86.288076V497.618483c0-47.58262-38.705456-86.290123-86.288076-86.290122-47.583643 0-86.292169 38.707503-86.292169 86.290122V756.487828c0 47.581597 38.708526 86.288076 86.292169 86.288076z m-28.76508-345.157421c0-15.870424 12.893632-28.763033 28.76508-28.763033 15.868378 0 28.760987 12.892609 28.760987 28.763033V756.487828c0 15.869401-12.893632 28.76201-28.760987 28.76201-15.872471 0-28.76508-12.893632-28.76508-28.76201V497.618483zM885.927617 842.775904c47.580573 0 86.289099-38.70648 86.2891-86.288076V583.909629c0-47.583643-38.708526-86.291146-86.2891-86.291146-47.58262 0-86.291146 38.707503-86.291146 86.291146V756.487828c0 47.581597 38.708526 86.288076 86.291146 86.288076z m-28.763033-258.866275c0-15.843818 12.863957-28.764056 28.763033-28.764056 15.842795 0 28.763033 12.920238 28.763033 28.764056V756.487828c0 15.869401-12.920238 28.76201-28.763033 28.76201-15.899077 0-28.763033-12.893632-28.763033-28.76201V583.909629zM627.060319 842.775904c47.58262 0 86.288076-38.70648 86.288076-86.288076V152.461062c0-47.583643-38.705456-86.290123-86.288076-86.290122-47.583643 0-86.289099 38.70648-86.289099 86.290122V756.487828c0 47.581597 38.705456 86.288076 86.289099 86.288076z m-28.76508-690.314842c0-15.842795 12.866003-28.763033 28.764057-28.763033 15.841772 0 28.760987 12.920238 28.760986 28.763033V756.487828c0 15.869401-12.919215 28.76201-28.760986 28.76201-15.898053 0-28.764056-12.893632-28.764057-28.76201V152.461062zM23.02025 900.302994h977.9595v57.526066H23.02025z" p-id="7061"></path></svg>